<svg xmlns="http://www.w3.org/2000/svg" xmlns:xlink="http://www.w3.org/1999/xlink"><defs>
        <clipPath id="a">
            <path fill="#fff" d="M0 0h46v13H0z"/>
        </clipPath>
    
        <clipPath id="a">
            <rect fill="#fff"/>
        </clipPath>
    </defs><symbol id="Basket" viewBox="0 0 21 27"><g fill="none">
    <path clip-rule="evenodd" d="M1.167 9.9A2.368 2.368 0 0 1 3.5 7.5h14a2.368 2.368 0 0 1 2.333 2.4v10.8a4.735 4.735 0 0 1-4.666 4.8H5.833a4.735 4.735 0 0 1-4.666-4.8V9.9Z" stroke="CurrentColor" stroke-width="1.5" stroke-linecap="round" stroke-linejoin="round"/>
    <path d="M15.167 11.1V6.3A4.735 4.735 0 0 0 10.5 1.5a4.735 4.735 0 0 0-4.667 4.8v4.8" stroke="CurrentColor" stroke-width="1.5" stroke-linecap="round" stroke-linejoin="round"/>
</g></symbol><symbol id="Logo" viewBox="0 0 217 57"><g fill="none">
    <path d="M48.03 56.384H8.354A8.331 8.331 0 0 1 0 48.03V8.353A8.331 8.331 0 0 1 8.353 0h39.678a8.331 8.331 0 0 1 8.353 8.353v39.678c0 4.63-3.814 8.353-8.353 8.353Z" fill="CurrentColor"/>
    <path d="M27.783 18.25s5.539-3.36 8.898-5.266c3.36-1.907 5.266-2.543 7.173-2.724 1.907-.09 4.086.908 4.086.908l-6.084-3.813s-.817-.545-3.087-.273c-2.27.273-3.45.908-4.902 1.634-1.453.818-11.168 6.538-11.168 6.538l5.084 2.996ZM42.31 15.707s2.815 3.905.636 10.805c-2.18 6.9-7.264 10.805-7.627 11.077-.272.273-3.45 2.088-3.45 2.088l.09 5.448s10.17-3.54 14.437-13.347c3.813-8.625 1.362-13.256-.545-15.253-1.09-1.18-3.54-.817-3.54-.817Z" fill="#fff"/>
    <path d="M27.783 45.034 22.7 42.038V15.344l5.084 2.906v26.784ZM12.257 37.226l-5.084-3.087V7.536l4.993 2.815.091 26.875Z" fill="#fff"/>
    <path d="M7.173 34.139s-1.271 11.259 7.899 15.344c5.266 2.361 9.17 1 10.986-.817 1.453-1.452 1.634-3.632 1.634-3.632l-5.084-3.087s0 1.09-.817 1.907c-.908.999-2.361 1.998-5.63.363-4.176-2.179-3.995-6.99-3.995-6.99l-4.993-3.088ZM12.167 10.35l4.085-2.088-4.63-2.542-4.45 1.816 4.995 2.815Z" fill="#fff"/>
    <path d="M211.916 43.49h1.997v.455h-.817v2.088h-.454v-2.088h-.817l.091-.454ZM214.276 43.49h.545l.817 1.635.817-1.634H217v2.542h-.454v-1.816l-.817 1.544h-.273l-.817-1.544v1.816h-.363v-2.542ZM209.192 43.672v2.543h-11.077c-2.724 0-2.724 0-2.724 2.633 0 3.904 0 3.904 3.813 3.904 1.998 0 3.995-.09 5.902 0 1.453.09 1.907-.454 1.725-1.816-.091-.817 0-1.725 0-2.724h2.815c0 1.544.09 2.996 0 4.54-.091 1.543-1.09 2.451-2.543 2.542-3.995.091-7.899.091-11.894 0-1.816 0-2.724-1.18-2.724-2.996V46.76c0-1.998.908-2.997 2.815-3.088 4.631-.09 9.17 0 13.892 0ZM68.46 24.424h2.814v8.716a.39.39 0 0 0 .363.363h10.987a.39.39 0 0 0 .363-.363v-8.716h2.905c0 3.178.091 6.265 0 9.352 0 1.452-.999 2.36-2.36 2.36-4.359.091-8.263.091-12.712 0-1.452 0-2.36-.998-2.36-2.542-.091-2.996 0-6.083 0-9.17ZM131.834 43.672h2.815v8.535a.39.39 0 0 0 .363.363h12.712v2.633h-12.621c-2.542 0-3.359-.998-3.359-3.268.09-2.452.09-5.539.09-8.263ZM168.425 43.763h2.633v11.531h-2.633v-11.53ZM125.751 30.053s.454-.726.454-1.09c.545-2.178-.272-4.448-2.451-4.54-4.903-.18-9.806-.09-14.891-.09v11.713h13.71c3.541 0 4.086-2.633 3.541-5.085 0-.272-.363-.908-.363-.908Zm-2.996 3.36-10.805.09v-2.179h10.805a.39.39 0 0 1 .363.363v1.362a.39.39 0 0 1-.363.364Zm0-4.268-10.805.091v-2.179h10.805a.39.39 0 0 1 .363.363v1.362a.39.39 0 0 1-.363.363ZM141.549 26.603c-.908-1.816-2.269-2.18-4.085-2.18-1.907 0-3.178.364-4.086 2.18 0 0-3.45 6.174-5.448 9.533h3.541l4.903-8.898c.091-.09.182-.181.363-.181h1.635c.09 0 .272.09.363.181l4.903 8.898h3.541c-2.179-3.359-5.72-9.533-5.63-9.533ZM165.701 24.424h-2.996v9.08s-.454.09-1.09-.454c-1.543-1.453-4.994-5.63-5.448-6.084 0 0 0-.09-.09-.09a6.853 6.853 0 0 0-.636-.727c-1.089-1.09-1.725-1.634-3.723-1.816h-2.633v11.713h2.997v-9.08s.454-.09 1.089.454c1.544 1.453 4.994 5.63 5.448 6.083 0 0 0 .091.091.091.272.363.544.636.635.727 1.09 1.09 1.725 1.634 3.723 1.816h2.633V24.423ZM85.801 45.942c0-1.361-.999-2.179-2.542-2.179H68.187v11.531h15.072c1.453 0 2.451-.908 2.542-2.179v-7.173Zm-2.814 1.544V52.389a.39.39 0 0 1-.364.363H71.365a.39.39 0 0 1-.363-.363v-5.63a.39.39 0 0 1 .363-.363h11.44c.182 0 .182.182.182.364v.726ZM190.125 43.672h-2.996v9.08s-.454.09-1.09-.454c-1.544-1.453-4.994-5.63-5.448-6.083l-.091-.091a6.766 6.766 0 0 0-.635-.727c-1.09-1.09-1.725-1.634-3.723-1.816h-2.633v11.713h2.997v-9.08s.453-.09 1.089.455c1.544 1.452 4.994 5.629 5.448 6.083l.091.09c.272.364.544.636.635.727 1.09 1.09 1.725 1.634 3.723 1.816h2.633V43.672ZM108.046 43.672c-.454 2.452-1.18 5.63-1.725 8.081-.091.545-.272.908-.726.908-.545 0-.545-.363-.817-.908 0 0-1.816-4.812-2.724-6.9-.363-.818-.908-1.18-1.725-1.18h-2.18c-.817 0-1.361.362-1.725 1.18-.908 2.088-2.723 6.9-2.723 6.9-.182.545-.273.908-.817.908-.454 0-.636-.363-.727-.908-.545-2.542-1.18-5.63-1.725-8.08h-3.087c.726 3.177 1.453 6.173 2.088 9.079.273 1.271.636 2.542 2.27 2.451h2.452c.907 0 1.361-.635 1.816-1.906l2.633-6.992c.272-.726.363-.817.544-.817.182 0 .364.091.545.817l2.633 6.992c.454 1.27.908 1.906 1.816 1.906h2.452c1.634 0 1.997-1.18 2.269-2.451a602.807 602.807 0 0 1 2.089-9.08h-2.906ZM128.384 48.484h-12.983c-.273 0-.454-.181-.454-.363V46.76c0-.181.181-.363.454-.363h13.619v-2.633c-4.994 0-9.897-.09-14.891.091-2.088.09-2.633 1.998-2.633 4.358v2.27c0 2.452.182 4.994 3.723 4.994h13.71v-2.633H115.31c-.273 0-.454-.182-.454-.364v-1.543c0-.182.181-.363.454-.363h13.619v-2.089h-.545ZM149.812 43.672h2.814v8.535c0 .182.182.363.364.363h12.711v2.633H153.08c-2.542 0-3.359-.998-3.359-3.268.091-2.452.091-5.539.091-8.263ZM101.327 31.597h1.362c2.452-.091 2.724-1.362 2.724-3.541 0-1.998-.545-3.45-2.815-3.541H87.981v11.712h2.723v-4.54h6.628l4.903 4.54h3.814c0-.09-4.722-4.63-4.722-4.63Zm-10.532-2.452v-2.179h10.896a.39.39 0 0 1 .363.363v1.362a.39.39 0 0 1-.363.363l-10.896.091Z" fill="#231815"/>
</g></symbol><symbol id="MasterCard" viewBox="0 0 49 29"><g fill="none">
    <path d="M48.762 14.5c0 7.956-6.47 14.5-14.5 14.5-7.956 0-14.5-6.544-14.5-14.5S26.232 0 34.188 0c8.105 0 14.574 6.544 14.574 14.5Z" fill="gray"/>
    <path d="M29.354 14.574c0-1.04-.148-2.082-.297-3.048h-8.923c.074-.52.223-.967.372-1.562h7.956c-.149-.52-.372-1.04-.595-1.561H21.1c.223-.521.52-.967.818-1.562h5.131c-.297-.52-.67-1.041-1.115-1.562h-2.826c.446-.52.892-.966 1.487-1.487C22.067 1.412 18.647 0 14.855 0 6.971.223.428 6.544.428 14.5S6.898 29 14.929 29c3.792 0 7.138-1.487 9.74-3.792.521-.446.967-.967 1.488-1.562h-2.975a10.626 10.626 0 0 1-1.04-1.487h5.056c.297-.446.595-.967.818-1.562h-6.767a7.601 7.601 0 0 1-.595-1.561h7.957c.446-1.339.743-2.826.743-4.462Z" fill="#686868"/>
    <path d="m20.062 18.218.223-1.339c-.075 0-.223.075-.372.075-.52 0-.595-.298-.52-.446l.446-2.677h.818l.223-1.487h-.744l.149-.893h-1.562s-.892 5.057-.892 5.651c0 .893.52 1.339 1.264 1.339.446 0 .818-.149.967-.223ZM20.582 15.764c0 2.157 1.487 2.677 2.677 2.677 1.115 0 1.636-.223 1.636-.223l.297-1.487s-.818.372-1.636.372c-1.71 0-1.413-1.265-1.413-1.265h3.123s.224-.966.224-1.412c0-.967-.52-2.231-2.231-2.231-1.487-.075-2.677 1.636-2.677 3.57Zm2.677-2.23c.818 0 .67.966.67 1.04h-1.711c.074-.074.223-1.04 1.04-1.04ZM32.998 18.218l.297-1.71s-.743.372-1.338.372c-1.04 0-1.562-.818-1.562-1.785 0-1.859.893-2.826 2.008-2.826.744 0 1.413.447 1.413.447l.223-1.636s-.892-.372-1.785-.372c-1.784 0-3.494 1.561-3.494 4.461 0 1.934.892 3.198 2.75 3.198.67.074 1.488-.149 1.488-.149ZM11.658 12.12c-1.041 0-1.86.298-1.86.298l-.222 1.338s.669-.297 1.71-.297c.52 0 .967.074.967.52 0 .298-.075.372-.075.372h-.669c-1.338 0-2.751.52-2.751 2.305 0 1.413.892 1.71 1.487 1.71 1.04 0 1.561-.669 1.636-.669l-.075.595h1.264l.595-4.239c0-1.859-1.487-1.933-2.007-1.933Zm.297 3.42c0 .224-.149 1.488-1.04 1.488-.447 0-.596-.372-.596-.595 0-.372.223-.892 1.413-.892h.223ZM15.153 18.366c.372 0 2.305.075 2.305-2.007 0-1.934-1.859-1.562-1.859-2.305 0-.372.297-.52.818-.52.223 0 1.04.073 1.04.073l.224-1.412s-.52-.15-1.487-.15c-1.116 0-2.305.447-2.305 2.009 0 1.784 1.933 1.636 1.933 2.305 0 .446-.52.52-.892.52-.67 0-1.413-.223-1.413-.223l-.223 1.413c.149.149.595.297 1.859.297ZM45.785 10.93l-.297 2.083s-.595-.744-1.487-.744c-1.413 0-2.603 1.71-2.603 3.718 0 1.264.595 2.528 1.934 2.528.892 0 1.487-.595 1.487-.595l-.075.52h1.562l1.115-7.36-1.636-.15Zm-.743 4.016c0 .818-.372 1.933-1.264 1.933-.52 0-.818-.446-.818-1.264 0-1.264.52-2.007 1.264-2.007.52.074.818.446.818 1.338ZM3.254 18.292l.892-5.502.149 5.502h1.04l2.008-5.502-.818 5.502h1.636l1.264-7.361H6.897l-1.561 4.536-.075-4.536h-2.23l-1.265 7.361h1.488Z" fill="#fff"/>
    <path d="M27.05 18.293c.446-2.529.52-4.61 1.636-4.239.149-.967.372-1.413.52-1.785h-.297c-.67 0-1.264.893-1.264.893l.149-.818h-1.488l-.966 5.949h1.71ZM36.569 12.12a6.021 6.021 0 0 0-1.86.298l-.222 1.338s.669-.297 1.71-.297c.52 0 .967.074.967.52 0 .298-.075.372-.075.372h-.669c-1.338 0-2.751.52-2.751 2.305 0 1.413.892 1.71 1.487 1.71 1.041 0 1.562-.669 1.636-.669l-.075.595h1.413l.595-4.239c0-1.859-1.636-1.933-2.156-1.933Zm.372 3.42c0 .224-.15 1.488-1.041 1.488-.447 0-.595-.372-.595-.595 0-.372.223-.892 1.413-.892h.223ZM39.916 18.293c.446-2.529.52-4.61 1.635-4.239.15-.967.372-1.413.52-1.785h-.297c-.669 0-1.264.893-1.264.893l.149-.818h-1.487l-.967 5.949h1.71Z" fill="#fff"/>
</g></symbol><symbol id="Menu" viewBox="0 0 40 24"><g fill="none">
    <path fill="CurrentColor" d="M8.333 16.2h23.333v1.6H8.333zM8.333 11.2h23.333v1.6H8.333zM8.333 6.2h23.333v1.6H8.333z"/>
</g></symbol><symbol id="Mir" viewBox="0 0 46 13"><g fill="none">
    <g clip-path="url(#a)">
        <path d="M16.42 12.984h-4.093V5.363h-.271L9.77 12.986H6.667L4.38 5.356h-.262c-.014.633-.005 1.264-.007 1.895v5.698c-.152.058-3.862.072-4.112.017V.026C.088.02.173.008.258.008h3.798c.176 0 .353-.006.53 0 .805.03 1.332.48 1.642 1.215.142.333.236.689.334 1.04.485 1.73.964 3.462 1.446 5.193.019.066.044.131.068.203h.29c.023-.076.05-.153.072-.232.543-1.925 1.084-3.85 1.63-5.775.12-.424.307-.811.622-1.123.314-.31.69-.474 1.117-.508.257-.022.516-.013.774-.013h3.828c.048.178.056 12.735.011 12.975ZM31.115 12.985h-4.172V5.36h-.332c-.03.062-.064.13-.095.2-.866 1.996-1.735 3.992-2.598 5.99-.33.76-.877 1.238-1.664 1.418a1.107 1.107 0 0 1-.242.026h-3.634c-.066 0-.133-.007-.213-.012V.052c.14-.053 3.818-.074 4.177-.021.005.089.017.183.017.278v7.338h.306c.031-.065.07-.138.104-.213.879-1.983 1.76-3.965 2.632-5.95.252-.572.608-1.03 1.169-1.3a1.72 1.72 0 0 1 .768-.178c1.177.006 2.355.002 3.532.002h.235c.05.18.058 12.74.01 12.977Z" fill="#fff"/>
        <path d="M45.907 5.369c-.085.004-.158.01-.232.01-2.47 0-4.94.005-7.41-.008-.52-.003-1.046.008-1.56-.132a5.04 5.04 0 0 1-2.086-1.154 6.14 6.14 0 0 1-1.766-2.742 5.156 5.156 0 0 1-.248-1.31c.08-.003.157-.01.235-.01L38.35.02c1.028-.001 2.055 0 3.083-.002.796-.002 1.556.161 2.258.555 1.255.702 1.993 1.795 2.248 3.242.085.482.085.965-.002 1.447-.005.027-.015.053-.03.107Z" fill="gray"/>
        <path d="M45.63 6.203c-.117.36-.286.672-.494.96-.695.958-1.632 1.53-2.744 1.817a4.96 4.96 0 0 1-1.254.141c-1.36-.003-2.722 0-4.083 0h-.261v3.827c-.164.059-3.755.071-3.998.019V6.225c.007-.01.011-.016.016-.02.005-.005.01-.01.017-.011.026-.006.053-.014.08-.014h12.635c.02 0 .039.01.086.023Z" fill="#fff"/>
    </g>
    
</g></symbol><symbol id="Search" viewBox="0 0 22 23"><g fill="none">
    <path d="M10.193 20.142c-5.008 0-9.085-4.077-9.085-9.085 0-5.008 4.077-9.085 9.085-9.085 5.008 0 9.085 4.077 9.085 9.085 0 5.008-4.077 9.085-9.085 9.085Zm0-16.84c-4.281 0-7.756 3.483-7.756 7.755s3.475 7.755 7.756 7.755c4.281 0 7.756-3.483 7.756-7.755S14.474 3.3 10.193 3.3ZM19.5 21.028a.657.657 0 0 1-.47-.195l-1.773-1.772a.669.669 0 0 1 0-.94.669.669 0 0 1 .94 0l1.773 1.773a.669.669 0 0 1 0 .94.657.657 0 0 1-.47.194Z" fill="CurrentColor"/>
</g></symbol><symbol id="Visa" viewBox="0 0 45 14"><g fill="none">
    <g clip-path="url(#a)">
        <path d="M44.998 13.726v.08h-3.372l-.435-2.026h-4.684l-.76 2.02h-3.819c.02-.052.035-.094.053-.134l4.272-9.813c.373-.855.744-1.71 1.121-2.564.148-.336.373-.614.708-.799.331-.181.695-.24 1.069-.243.937-.005 1.876-.002 2.814-.002.031 0 .063.006.096.01l.94 4.328.972 4.483.886 4.086c.042.192.093.382.14.573Zm-7.434-4.727h3.025L39.5 3.923c-.65 1.7-1.29 3.378-1.937 5.076ZM30.03 0c.132.017.263.038.396.05.763.074 1.503.24 2.221.5.018.007.034.016.07.033l-.493 2.913c-.261-.102-.51-.207-.763-.297a6.38 6.38 0 0 0-2.82-.324c-.409.041-.8.151-1.134.397a1.021 1.021 0 0 0-.402.555c-.082.295.011.552.225.755.189.18.397.35.624.478.463.263.942.5 1.42.738.681.34 1.325.729 1.858 1.27.504.51.837 1.107.928 1.81.1.777-.021 1.528-.354 2.243-.452.968-1.215 1.641-2.183 2.117a7.045 7.045 0 0 1-2.175.65c-.384.052-.773.075-1.16.112h-.79c-1.053-.044-2.088-.185-3.095-.49-.209-.063-.412-.142-.622-.214l.511-3.048c.245.105.474.206.705.304.636.27 1.291.482 1.985.56.662.074 1.326.123 1.987-.01.305-.062.595-.162.854-.332.374-.245.59-.572.55-1.025a.96.96 0 0 0-.26-.558 2.679 2.679 0 0 0-.758-.574c-.442-.235-.894-.453-1.339-.683-.68-.352-1.32-.757-1.844-1.312-.681-.723-.964-1.566-.85-2.539.142-1.206.756-2.14 1.753-2.856.776-.556 1.658-.884 2.602-1.057.349-.063.705-.093 1.057-.14.02-.002.038-.017.057-.025L30.03 0Z" fill="#fff"/>
        <path d="M0 .46.07.244H5.83c.278 0 .553.03.817.114.515.163.811.52.921 1.019.14.634.264 1.27.395 1.907L8.51 5.96l.292 1.417c.008.04.007.081.01.121-.018-.036-.04-.07-.055-.108a9.825 9.825 0 0 0-1.015-1.874C6.87 4.247 5.756 3.212 4.44 2.375c-.194-.124-.399-.231-.6-.346-.222-.122-.44-.253-.668-.366A15.435 15.435 0 0 0 .122.551C.085.54.043.544 0 .54V.46Z" fill="gray"/>
        <path d="M3.84 2.03c.2.114.406.221.6.345 1.317.837 2.43 1.872 3.303 3.14.406.591.747 1.215 1.015 1.875.015.038.037.072.055.108l.334 1.547.095.444L12.809.25h3.852c-.07.167-.136.33-.204.491l-5.455 12.892c-.08.188-.033.156-.238.156-1.172.002-2.345.001-3.517.001h-.165c-.072-.256-.143-.507-.212-.758L4.068 2.865c-.077-.278-.152-.557-.227-.836ZM19.503 13.8h-3.646L18.135.252h3.646L19.503 13.8Z" fill="#fff"/>
    </g>
    
</g></symbol></svg>
